<mxfile host="app.diagrams.net" modified="2023-08-03T04:42:15.942Z" agent="Mozilla/5.0 (Macintosh; Intel Mac OS X 10_15_7) AppleWebKit/605.1.15 (KHTML, like Gecko) Version/16.5 Safari/605.1.15" etag="wHdv5_2F9uXzcV8RJKXl" version="21.6.6" type="github">
  <diagram name="Page-1" id="lvIJPakYY8ff7qoYnFZU">
    <mxGraphModel dx="1194" dy="1897" grid="1" gridSize="10" guides="1" tooltips="1" connect="1" arrows="1" fold="1" page="1" pageScale="1" pageWidth="850" pageHeight="1100" math="0" shadow="0">
      <root>
        <mxCell id="0" />
        <mxCell id="1" parent="0" />
        <mxCell id="RFod4uBiAlvnLVRhwqHF-47" style="edgeStyle=orthogonalEdgeStyle;rounded=0;orthogonalLoop=1;jettySize=auto;html=1;" edge="1" parent="1" source="RFod4uBiAlvnLVRhwqHF-9" target="RFod4uBiAlvnLVRhwqHF-46">
          <mxGeometry relative="1" as="geometry" />
        </mxCell>
        <mxCell id="RFod4uBiAlvnLVRhwqHF-9" value="&lt;font size=&quot;4&quot;&gt;构建器&lt;/font&gt;" style="swimlane;whiteSpace=wrap;html=1;align=left;strokeColor=#808080;" vertex="1" parent="1">
          <mxGeometry x="160" y="160" width="440" height="150" as="geometry" />
        </mxCell>
        <mxCell id="RFod4uBiAlvnLVRhwqHF-22" value="&lt;font style=&quot;font-size: 18px;&quot;&gt;A类构建&lt;/font&gt;" style="editableCssRules=.*;html=1;shape=image;verticalLabelPosition=bottom;labelBackgroundColor=#ffffff;verticalAlign=top;aspect=fixed;imageAspect=0;image=data:image/svg+xml,PHN2ZyB4bWxucz0iaHR0cDovL3d3dy53My5vcmcvMjAwMC9zdmciIHhtbG5zOnY9Imh0dHBzOi8vdmVjdGEuaW8vbmFubyIgd2lkdGg9IjE3LjMyOTk5OTkyMzcwNjA1NSIgaGVpZ2h0PSIxOS42MTAwMDA2MTAzNTE1NjIiIHZpZXdCb3g9IjAgMCAxNy4zMjk5OTk5MjM3MDYwNTUgMTkuNjEwMDAwNjEwMzUxNTYyIj4mI3hhOwk8c3R5bGUgdHlwZT0idGV4dC9jc3MiPiYjeGE7CS5zdDB7ZmlsbDojNDI4NWY0O30mI3hhOwkuc3Qxe2ZpbGw6IzY2OWRmNjt9JiN4YTsJLnN0MntmaWxsOiNhZWNiZmE7fSYjeGE7CTwvc3R5bGU+JiN4YTsJPHBhdGggY2xhc3M9InN0MCIgZD0iTTEyLjE4IDcuOThMMTEgNy4yOWwtMy41MiA2LjEgMS4xOC42OCAzLjUyLTIuMDN6IiBmaWxsPSIjNDI4NWY0Ii8+JiN4YTsJPHBhdGggY2xhc3M9InN0MSIgZD0iTTYuMzIgMTIuNzJsMy41My02LjA5LTEuMTktLjY5LTMuNTIgMi4wNHY0LjA2eiIgZmlsbD0iIzY2OWRmNiIvPiYjeGE7CTxwYXRoIGNsYXNzPSJzdDIiIGQ9Ik0zLjc1IDcuOThMMCA1LjgxdjkuMmw3Ljk3IDQuNnYtNC4zM2wtNC4yMi0yLjQ0em05LjEzLTEuMmwzLjc2LTIuMTdMOC42NiAwIC42OCA0LjYxbDMuNzYgMi4xNyA0LjIyLTIuNDR6TTkuMzUgMTkuNjFsNy45OC00LjZ2LTkuMmwtMy43NiAyLjE3djQuODZsLTQuMjIgMi40NHoiIGZpbGw9IiNhZWNiZmEiLz4mI3hhOzwvc3ZnPg==;flipH=1;" vertex="1" parent="RFod4uBiAlvnLVRhwqHF-9">
          <mxGeometry x="40" y="40" width="59.5" height="70" as="geometry" />
        </mxCell>
        <mxCell id="RFod4uBiAlvnLVRhwqHF-23" value="&lt;font style=&quot;font-size: 18px;&quot;&gt;B类构建&lt;/font&gt;" style="editableCssRules=.*;html=1;shape=image;verticalLabelPosition=bottom;labelBackgroundColor=#ffffff;verticalAlign=top;aspect=fixed;imageAspect=0;image=data:image/svg+xml,PHN2ZyB4bWxucz0iaHR0cDovL3d3dy53My5vcmcvMjAwMC9zdmciIHhtbG5zOnY9Imh0dHBzOi8vdmVjdGEuaW8vbmFubyIgd2lkdGg9IjE3LjMyOTk5OTkyMzcwNjA1NSIgaGVpZ2h0PSIxOS42MTAwMDA2MTAzNTE1NjIiIHZpZXdCb3g9IjAgMCAxNy4zMjk5OTk5MjM3MDYwNTUgMTkuNjEwMDAwNjEwMzUxNTYyIj4mI3hhOwk8c3R5bGUgdHlwZT0idGV4dC9jc3MiPiYjeGE7CS5zdDB7ZmlsbDojNDI4NWY0O30mI3hhOwkuc3Qxe2ZpbGw6IzY2OWRmNjt9JiN4YTsJLnN0MntmaWxsOiNhZWNiZmE7fSYjeGE7CTwvc3R5bGU+JiN4YTsJPHBhdGggY2xhc3M9InN0MCIgZD0iTTEyLjE4IDcuOThMMTEgNy4yOWwtMy41MiA2LjEgMS4xOC42OCAzLjUyLTIuMDN6IiBmaWxsPSIjNDI4NWY0Ii8+JiN4YTsJPHBhdGggY2xhc3M9InN0MSIgZD0iTTYuMzIgMTIuNzJsMy41My02LjA5LTEuMTktLjY5LTMuNTIgMi4wNHY0LjA2eiIgZmlsbD0iIzY2OWRmNiIvPiYjeGE7CTxwYXRoIGNsYXNzPSJzdDIiIGQ9Ik0zLjc1IDcuOThMMCA1LjgxdjkuMmw3Ljk3IDQuNnYtNC4zM2wtNC4yMi0yLjQ0em05LjEzLTEuMmwzLjc2LTIuMTdMOC42NiAwIC42OCA0LjYxbDMuNzYgMi4xNyA0LjIyLTIuNDR6TTkuMzUgMTkuNjFsNy45OC00LjZ2LTkuMmwtMy43NiAyLjE3djQuODZsLTQuMjIgMi40NHoiIGZpbGw9IiNhZWNiZmEiLz4mI3hhOzwvc3ZnPg==;flipH=1;" vertex="1" parent="RFod4uBiAlvnLVRhwqHF-9">
          <mxGeometry x="206" y="40" width="59.5" height="70" as="geometry" />
        </mxCell>
        <mxCell id="RFod4uBiAlvnLVRhwqHF-24" value="&lt;font style=&quot;font-size: 18px;&quot;&gt;C类构建&lt;/font&gt;" style="editableCssRules=.*;html=1;shape=image;verticalLabelPosition=bottom;labelBackgroundColor=#ffffff;verticalAlign=top;aspect=fixed;imageAspect=0;image=data:image/svg+xml,PHN2ZyB4bWxucz0iaHR0cDovL3d3dy53My5vcmcvMjAwMC9zdmciIHhtbG5zOnY9Imh0dHBzOi8vdmVjdGEuaW8vbmFubyIgd2lkdGg9IjE3LjMyOTk5OTkyMzcwNjA1NSIgaGVpZ2h0PSIxOS42MTAwMDA2MTAzNTE1NjIiIHZpZXdCb3g9IjAgMCAxNy4zMjk5OTk5MjM3MDYwNTUgMTkuNjEwMDAwNjEwMzUxNTYyIj4mI3hhOwk8c3R5bGUgdHlwZT0idGV4dC9jc3MiPiYjeGE7CS5zdDB7ZmlsbDojNDI4NWY0O30mI3hhOwkuc3Qxe2ZpbGw6IzY2OWRmNjt9JiN4YTsJLnN0MntmaWxsOiNhZWNiZmE7fSYjeGE7CTwvc3R5bGU+JiN4YTsJPHBhdGggY2xhc3M9InN0MCIgZD0iTTEyLjE4IDcuOThMMTEgNy4yOWwtMy41MiA2LjEgMS4xOC42OCAzLjUyLTIuMDN6IiBmaWxsPSIjNDI4NWY0Ii8+JiN4YTsJPHBhdGggY2xhc3M9InN0MSIgZD0iTTYuMzIgMTIuNzJsMy41My02LjA5LTEuMTktLjY5LTMuNTIgMi4wNHY0LjA2eiIgZmlsbD0iIzY2OWRmNiIvPiYjeGE7CTxwYXRoIGNsYXNzPSJzdDIiIGQ9Ik0zLjc1IDcuOThMMCA1LjgxdjkuMmw3Ljk3IDQuNnYtNC4zM2wtNC4yMi0yLjQ0em05LjEzLTEuMmwzLjc2LTIuMTdMOC42NiAwIC42OCA0LjYxbDMuNzYgMi4xNyA0LjIyLTIuNDR6TTkuMzUgMTkuNjFsNy45OC00LjZ2LTkuMmwtMy43NiAyLjE3djQuODZsLTQuMjIgMi40NHoiIGZpbGw9IiNhZWNiZmEiLz4mI3hhOzwvc3ZnPg==;flipH=1;" vertex="1" parent="RFod4uBiAlvnLVRhwqHF-9">
          <mxGeometry x="350" y="40" width="59.5" height="70" as="geometry" />
        </mxCell>
        <mxCell id="RFod4uBiAlvnLVRhwqHF-33" style="edgeStyle=orthogonalEdgeStyle;rounded=0;orthogonalLoop=1;jettySize=auto;html=1;entryX=0.5;entryY=1;entryDx=0;entryDy=0;" edge="1" parent="1" source="RFod4uBiAlvnLVRhwqHF-17" target="RFod4uBiAlvnLVRhwqHF-9">
          <mxGeometry relative="1" as="geometry" />
        </mxCell>
        <mxCell id="RFod4uBiAlvnLVRhwqHF-17" value="&lt;font size=&quot;4&quot;&gt;文档源&lt;/font&gt;" style="swimlane;whiteSpace=wrap;html=1;align=left;strokeColor=#808080;" vertex="1" parent="1">
          <mxGeometry x="160" y="360" width="730" height="180" as="geometry" />
        </mxCell>
        <mxCell id="RFod4uBiAlvnLVRhwqHF-16" value="&lt;font style=&quot;font-size: 18px;&quot;&gt;用户手册&lt;/font&gt;" style="outlineConnect=0;dashed=0;verticalLabelPosition=bottom;verticalAlign=top;align=center;html=1;shape=mxgraph.aws3.workdocs;fillColor=#D16A28;gradientColor=#F58435;gradientDirection=north;" vertex="1" parent="RFod4uBiAlvnLVRhwqHF-17">
          <mxGeometry x="30" y="40" width="82.5" height="94.5" as="geometry" />
        </mxCell>
        <mxCell id="RFod4uBiAlvnLVRhwqHF-18" value="&lt;font size=&quot;4&quot;&gt;开发文档&lt;/font&gt;" style="outlineConnect=0;dashed=0;verticalLabelPosition=bottom;verticalAlign=top;align=center;html=1;shape=mxgraph.aws3.workdocs;fillColor=#D16A28;gradientColor=#F58435;gradientDirection=north;" vertex="1" parent="RFod4uBiAlvnLVRhwqHF-17">
          <mxGeometry x="178" y="42.75" width="82.5" height="94.5" as="geometry" />
        </mxCell>
        <mxCell id="RFod4uBiAlvnLVRhwqHF-19" value="&lt;font size=&quot;4&quot;&gt;规范文档&lt;/font&gt;" style="outlineConnect=0;dashed=0;verticalLabelPosition=bottom;verticalAlign=top;align=center;html=1;shape=mxgraph.aws3.workdocs;fillColor=#D16A28;gradientColor=#F58435;gradientDirection=north;" vertex="1" parent="RFod4uBiAlvnLVRhwqHF-17">
          <mxGeometry x="325" y="40" width="82.5" height="94.5" as="geometry" />
        </mxCell>
        <mxCell id="RFod4uBiAlvnLVRhwqHF-20" value="&lt;font size=&quot;4&quot;&gt;部署文档&lt;/font&gt;" style="outlineConnect=0;dashed=0;verticalLabelPosition=bottom;verticalAlign=top;align=center;html=1;shape=mxgraph.aws3.workdocs;fillColor=#D16A28;gradientColor=#F58435;gradientDirection=north;" vertex="1" parent="RFod4uBiAlvnLVRhwqHF-17">
          <mxGeometry x="473" y="42.75" width="82.5" height="94.5" as="geometry" />
        </mxCell>
        <mxCell id="RFod4uBiAlvnLVRhwqHF-21" value="&lt;font size=&quot;4&quot;&gt;资源文档&lt;/font&gt;" style="outlineConnect=0;dashed=0;verticalLabelPosition=bottom;verticalAlign=top;align=center;html=1;shape=mxgraph.aws3.workdocs;fillColor=#D16A28;gradientColor=#F58435;gradientDirection=north;" vertex="1" parent="RFod4uBiAlvnLVRhwqHF-17">
          <mxGeometry x="620" y="42.75" width="82.5" height="94.5" as="geometry" />
        </mxCell>
        <mxCell id="RFod4uBiAlvnLVRhwqHF-34" style="edgeStyle=orthogonalEdgeStyle;rounded=0;orthogonalLoop=1;jettySize=auto;html=1;entryX=1;entryY=0.5;entryDx=0;entryDy=0;" edge="1" parent="1" source="RFod4uBiAlvnLVRhwqHF-32" target="RFod4uBiAlvnLVRhwqHF-9">
          <mxGeometry relative="1" as="geometry" />
        </mxCell>
        <mxCell id="RFod4uBiAlvnLVRhwqHF-32" value="&lt;font style=&quot;font-size: 18px;&quot;&gt;Antora UI库&lt;/font&gt;" style="sketch=0;html=1;aspect=fixed;strokeColor=none;shadow=0;fillColor=#3B8DF1;verticalAlign=top;labelPosition=center;verticalLabelPosition=bottom;shape=mxgraph.gcp2.view_list" vertex="1" parent="1">
          <mxGeometry x="720" y="185" width="81" height="100" as="geometry" />
        </mxCell>
        <mxCell id="RFod4uBiAlvnLVRhwqHF-45" value="" style="group" vertex="1" connectable="0" parent="1">
          <mxGeometry x="160" y="-130" width="730" height="120" as="geometry" />
        </mxCell>
        <mxCell id="RFod4uBiAlvnLVRhwqHF-35" value="" style="rounded=0;whiteSpace=wrap;html=1;strokeColor=#808080;" vertex="1" parent="RFod4uBiAlvnLVRhwqHF-45">
          <mxGeometry width="730" height="120" as="geometry" />
        </mxCell>
        <mxCell id="RFod4uBiAlvnLVRhwqHF-37" value="&lt;font style=&quot;font-size: 18px;&quot;&gt;Web&lt;/font&gt;" style="shape=image;html=1;verticalAlign=top;verticalLabelPosition=bottom;labelBackgroundColor=#ffffff;imageAspect=0;aspect=fixed;image=https://cdn1.iconfinder.com/data/icons/ionicons-fill-vol-2/512/logo-chrome-128.png" vertex="1" parent="RFod4uBiAlvnLVRhwqHF-45">
          <mxGeometry x="50" y="10" width="80" height="80" as="geometry" />
        </mxCell>
        <mxCell id="RFod4uBiAlvnLVRhwqHF-40" value="&lt;font style=&quot;font-size: 18px;&quot;&gt;压缩包&lt;/font&gt;" style="shape=image;html=1;verticalAlign=top;verticalLabelPosition=bottom;labelBackgroundColor=#ffffff;imageAspect=0;aspect=fixed;image=https://cdn1.iconfinder.com/data/icons/hawcons/32/699233-icon-124-document-file-zip-128.png" vertex="1" parent="RFod4uBiAlvnLVRhwqHF-45">
          <mxGeometry x="328" y="10" width="80" height="80" as="geometry" />
        </mxCell>
        <mxCell id="RFod4uBiAlvnLVRhwqHF-42" value="&lt;font style=&quot;font-size: 18px;&quot;&gt;附件&lt;/font&gt;" style="image;aspect=fixed;html=1;points=[];align=center;fontSize=12;image=img/lib/azure2/networking/Private_Link.svg;" vertex="1" parent="RFod4uBiAlvnLVRhwqHF-45">
          <mxGeometry x="610" y="20" width="72" height="66" as="geometry" />
        </mxCell>
        <mxCell id="RFod4uBiAlvnLVRhwqHF-48" style="edgeStyle=orthogonalEdgeStyle;rounded=0;orthogonalLoop=1;jettySize=auto;html=1;" edge="1" parent="1" source="RFod4uBiAlvnLVRhwqHF-46">
          <mxGeometry relative="1" as="geometry">
            <mxPoint x="525" y="-10" as="targetPoint" />
          </mxGeometry>
        </mxCell>
        <mxCell id="RFod4uBiAlvnLVRhwqHF-46" value="" style="sketch=0;outlineConnect=0;fontColor=#232F3E;gradientColor=none;fillColor=#4D27AA;strokeColor=none;dashed=0;verticalLabelPosition=bottom;verticalAlign=top;align=center;html=1;fontSize=12;fontStyle=0;aspect=fixed;pointerEvents=1;shape=mxgraph.aws4.virtual_gateway;" vertex="1" parent="1">
          <mxGeometry x="486" y="30" width="78" height="78" as="geometry" />
        </mxCell>
      </root>
    </mxGraphModel>
  </diagram>
</mxfile>
